<svg width="38" height="23" viewBox="0 0 38 23" fill="none" xmlns="http://www.w3.org/2000/svg">
<path d="M16.9972 3H19.0767V9.03409C19.0739 9.59943 18.939 10.0938 18.6719 10.517C18.4049 10.9375 18.0356 11.2642 17.564 11.4972C17.0952 11.7301 16.5526 11.8466 15.9361 11.8466C15.3907 11.8466 14.8949 11.7514 14.4489 11.5611C14.0057 11.3707 13.652 11.0753 13.3878 10.6747C13.1265 10.2741 12.9972 9.76136 13 9.13636H15.1009C15.1094 9.36079 15.152 9.55255 15.2287 9.71165C15.3083 9.86789 15.4177 9.98579 15.5569 10.0653C15.6961 10.1449 15.8623 10.1847 16.0554 10.1847C16.2571 10.1847 16.4276 10.142 16.5668 10.0568C16.706 9.96875 16.8111 9.83949 16.8821 9.66903C16.956 9.49858 16.9944 9.28693 16.9972 9.03409V3Z" fill="white"/>
<path d="M17 11.7273V3H20.6051C21.2585 3 21.8224 3.12784 22.2969 3.38352C22.7741 3.63636 23.142 3.99005 23.4006 4.4446C23.6591 4.8963 23.7883 5.42187 23.7883 6.0213C23.7883 6.62358 23.6562 7.15057 23.392 7.60227C23.1307 8.05113 22.7571 8.39914 22.2713 8.6463C21.7855 8.89346 21.2088 9.01704 20.5412 9.01704H20.3168V7.35511C20.6349 7.35511 20.733 7.29971 20.946 7.18892C21.1619 7.07812 21.3253 6.92329 21.4361 6.72443C21.5469 6.52272 21.6023 6.28835 21.6023 6.0213C21.6023 5.75142 21.5469 5.51846 21.4361 5.32244C21.3253 5.12358 21.1619 4.97017 20.946 4.86221C20.7301 4.75426 20.4645 4.70028 20.1491 4.70028H19.1094V11.7273H17Z" fill="white"/>
<rect x="17" width="2" height="2" fill="white"/>
<path d="M0.835232 14L3.5625 21.6918H3.6392L6.36647 14H7.2017L4.02699 22.7273H3.17471L0 14H0.835232ZM8.69744 22.7273V14H13.76V14.7159H9.49432V18.0014H12.4915V18.7173H9.49432V22.0114H13.8452V22.7273H8.69744ZM15.2941 14.7159V14H21.6222V14.7159H18.8566V22.7273H18.0597V14.7159H15.2941ZM23.4162 22.7273V14H26.233C26.8523 14 27.3694 14.1122 27.7841 14.3366C28.2018 14.5582 28.5157 14.8665 28.7259 15.2614C28.939 15.6534 29.0455 16.1037 29.0455 16.6122C29.0455 17.1207 28.939 17.5696 28.7259 17.9588C28.5157 18.348 28.2032 18.652 27.7884 18.8707C27.3736 19.0895 26.8594 19.1989 26.2458 19.1989H23.8466V18.4702H26.2245C26.679 18.4702 27.0569 18.3949 27.358 18.2443C27.662 18.0938 27.8878 17.8793 28.0356 17.6009C28.1861 17.3224 28.2614 16.9929 28.2614 16.6122C28.2614 16.2315 28.1861 15.8991 28.0356 15.6151C27.885 15.3281 27.6577 15.1065 27.3537 14.9503C27.0526 14.794 26.6719 14.7159 26.2117 14.7159H24.2131V22.7273H23.4162ZM27.2643 18.7898L29.412 22.7273H28.4915L26.3651 18.7898H27.2643ZM30.9993 22.7273H30.1641L33.3388 14H34.1911L37.3658 22.7273H36.5306L33.7948 15.0355H33.7351L30.9993 22.7273Z" fill="white"/>
</svg>
